<?xml version="1.0" standalone="no"?>
<!DOCTYPE svg PUBLIC "-//W3C//DTD SVG 20010904//EN"
 "http://www.w3.org/TR/2001/REC-SVG-20010904/DTD/svg10.dtd">
<svg version="1.0" xmlns="http://www.w3.org/2000/svg"
 width="700.000000pt" height="700.000000pt" viewBox="0 0 700.000000 700.000000"
 preserveAspectRatio="xMidYMid meet">
<metadata>
Created by potrace 1.14, written by Peter Selinger 2001-2017
</metadata>
<g transform="translate(0.000000,700.000000) scale(0.100000,-0.100000)"
fill="#000000" stroke="none">
<path d="M1152 3547 l3 -3092 698 0 c613 0 698 2 702 15 2 8 4 554 4 1213 -1
658 2 1198 4 1200 3 1 16 -11 28 -28 13 -16 26 -32 29 -35 3 -3 25 -32 50 -65
54 -72 183 -238 190 -245 3 -3 25 -32 50 -65 25 -33 99 -129 165 -215 66 -85
129 -167 140 -181 11 -15 81 -105 155 -200 74 -96 137 -178 142 -184 4 -5 20
-26 36 -45 15 -19 37 -47 48 -61 45 -62 169 -224 174 -229 3 -3 21 -25 40 -50
19 -25 37 -47 40 -50 3 -3 17 -21 30 -40 14 -19 32 -44 41 -55 19 -23 124
-158 349 -450 84 -110 159 -207 167 -215 12 -13 128 -15 908 -15 795 0 892 2
881 15 -12 14 -442 531 -665 800 -53 63 -98 117 -101 120 -3 3 -59 70 -125
150 -66 80 -128 154 -137 165 -9 11 -258 309 -552 662 l-534 642 71 27 c282
106 484 232 672 419 106 104 153 161 222 265 43 65 128 222 154 285 48 116
102 311 114 410 4 28 8 57 10 65 18 66 25 403 12 545 -55 574 -297 988 -752
1285 -193 126 -515 249 -745 285 -25 4 -53 9 -64 11 -20 4 -75 10 -196 23 -41
4 -612 8 -1268 9 l-1192 1 2 -3092z m1893 1959 c50 -3 101 -8 115 -10 14 -3
39 -7 55 -9 56 -9 162 -36 226 -58 176 -61 280 -152 365 -320 60 -121 86 -247
85 -415 -1 -299 -116 -534 -320 -654 -112 -66 -317 -122 -502 -135 -133 -10
-499 -12 -505 -3 -7 11 -7 1594 -1 1605 6 9 330 8 482 -1z"/>
</g>
</svg>
